<svg width="321" height="321" viewBox="0 0 321 321" fill="none" xmlns="http://www.w3.org/2000/svg">
<g clip-path="url(#clip0)">
<path d="M38.0642 85.0594C38.4636 81.119 36.9614 77.2231 34.0185 74.5717L4.04573 38.4655V33.0718H97.1088L169.042 190.83L232.284 33.0718L321 33.0724V38.4655L295.374 63.0351C293.164 64.7185 292.069 67.4877 292.527 70.2275V250.757C292.069 253.497 293.164 256.265 295.374 257.949L320.4 282.519V287.912H194.519V282.519L220.444 257.349C222.992 254.803 222.992 254.053 222.992 250.159V104.236L150.909 287.312H141.169L57.2458 104.236V226.936C56.5474 232.095 58.2602 237.289 61.8916 241.019L95.6116 281.918V287.312H0V281.918L33.72 241.019C37.3244 237.282 38.9369 232.053 38.0642 226.936V85.0594V85.0594Z" fill="white"/>
</g>
<defs>
<clipPath id="clip0">
<rect width="321" height="321" fill="white"/>
</clipPath>
</defs>
</svg>
