<?xml version="1.0" encoding="utf-8"?>
<!-- Generator: Adobe Illustrator 23.1.1, SVG Export Plug-In . SVG Version: 6.00 Build 0)  -->
<svg version="1.1" xmlns="http://www.w3.org/2000/svg" xmlns:xlink="http://www.w3.org/1999/xlink" x="0px" y="0px"
	 viewBox="0 0 432 432" style="enable-background:new 0 0 432 432;" xml:space="preserve">
<style type="text/css">
	.st0{fill:none;}
	.st1{fill:#FFE001;}
	.st2{fill:#F15E4C;}
	.st3{fill:#8000DB;}
	.st4{fill:#7DEDFF;}
	.st5{fill:#FF9900;}
	.st6{fill:#FF009E;}
</style>
<g id="Layer_2">
	<rect class="st0" width="432" height="432"/>
	<rect class="st0" width="432" height="432"/>
</g>
<g id="Objects">
	<g>
		<path class="st1" d="M357.9,138.3c-0.3,0-0.6,0-0.9-0.1l-1.4-0.3l0.6-2.8l1.4,0.3c1.2,0.2,2-0.8,2.2-1.2c0.5-0.8,0.7-1.8,0.4-2.3
			l-0.8-1.2l2.4-1.6l0.8,1.2c1,1.5,0.8,3.6-0.4,5.5C361.1,137.4,359.5,138.3,357.9,138.3z"/>
	</g>
	<g>
		<polygon class="st1" points="359.8,55.9 356.1,63 362.9,59.1 		"/>
	</g>
	<g>
		<rect x="396" y="48.2" transform="matrix(0.9416 -0.3369 0.3369 0.9416 6.5966 137.3286)" class="st1" width="6.1" height="2.9"/>
	</g>
	<g>
		<path class="st1" d="M392.3,100.4l-1.8-2.2l1.1-0.9c1.2-1,3-4.8,2.8-5.8l-0.9-1l2.1-1.9l1,1c0.5,0.6,0.8,1.3,0.7,2.3
			c-0.2,2.5-2.4,6.4-3.8,7.5L392.3,100.4z"/>
	</g>
	<g>
		<path class="st1" d="M382.1,86.9l-1.3-0.7c-1.2-0.6-7.7-5.5-7.6-8.7l0.1-1.4l2.9,0.1l-0.1,1.4c0.1,1.2,4.1,5,6.1,6.1l1.3,0.7
			L382.1,86.9z"/>
	</g>
	<g>
		<path class="st1" d="M336,115.1c-0.2,0-0.4,0-0.6-0.1c-0.9-0.2-1.7-0.9-2-1.7c-0.3-0.7-0.3-1.4-0.3-2c0-0.2,0-0.4,0-0.6
			c0-0.2-0.1-0.3-0.1-0.4l-1.3-0.1l0.2-2.8l1.4,0.1c1.3,0.1,2.4,1.3,2.6,2.9c0,0.3,0,0.6,0.1,0.9c0,0.3,0,0.6,0.1,0.8l0.6-0.6
			l1.9,2.1l-1.1,0.9C337.1,114.9,336.6,115.1,336,115.1z"/>
	</g>
	<g>
		<path class="st1" d="M309.2,131.1l-1-2.7l1.3-0.5c0.8-0.3,1.4-1,1.6-1.7c0.2-0.8,0.1-1.7-0.4-2.4l-0.8-1.2l2.3-1.6l0.8,1.2
			c1,1.4,1.2,3.2,0.7,4.8c-0.5,1.6-1.8,3-3.4,3.6L309.2,131.1z"/>
	</g>
	<g>
		<path class="st1" d="M321,79.5l-1.3-0.6c-1.2-0.5-2.1-1.6-2.5-2.9c-0.4-1.3-0.2-2.7,0.5-3.8l0.8-1.2l2.4,1.5l-0.8,1.2
			c-0.2,0.4-0.3,0.9-0.1,1.4c0.2,0.5,0.5,0.9,0.9,1.1l1.3,0.6L321,79.5z"/>
	</g>
	<g>
		<path class="st1" d="M322.4,39.6l-0.4-2.8l1.3-0.2c0.1-0.1,0.1-0.4,0-0.5c-0.2-0.5-0.7-0.9-1.3-1.4l-0.4-0.4
			c-1.3-1.2-2-2.5-1.8-3.8L320,29l2.8,0.2l-0.1,1.4c0,0.4,0.3,0.9,0.9,1.5l0.4,0.3c0.7,0.7,1.6,1.4,2,2.5c0.4,1,0.3,2.1-0.2,3
			c-0.4,0.8-1.1,1.2-2,1.4L322.4,39.6z"/>
	</g>
	<g>
		<path class="st1" d="M264.2,107.6l-2.5-1.3l0.7-1.3c0.5-1,1-2,1.1-2.9c0-0.7-0.3-1.5-0.8-1.7l-1.3-0.5l1-2.7l1.3,0.5
			c1.7,0.6,2.8,2.5,2.6,4.5c-0.1,1.6-0.8,3-1.4,4.1L264.2,107.6z"/>
	</g>
	<g>
		<path class="st1" d="M225.1,130.2l-2.8-0.5l0.2-1.4c0.1-0.5-0.3-1-0.8-1.2c-0.4-0.1-1,0-1.6,0.1l-0.2,0c-1,0.2-2.1,0.3-3.2-0.2
			c-0.8-0.4-1.4-1.1-1.7-1.9c-0.2-0.7-0.1-1.5,0.2-2.1l0.7-1.2l2.4,1.5l-0.6,1.1c0,0,0.1,0.1,0.1,0.1c0.3,0.2,0.9,0.1,1.5,0l0.2,0
			c0.8-0.2,1.8-0.4,2.8-0.1c1.9,0.5,3.2,2.5,2.9,4.4L225.1,130.2z"/>
	</g>
	<g>
		<path class="st1" d="M235.3,66l-1.4-0.1c-1.1-0.1-2.1-0.7-2.7-1.7s-0.8-2.2-0.4-3.2c0.3-1,1-1.7,1.6-2.3c0.4-0.4,0.7-0.7,0.9-1.1
			c0.2-0.5-0.1-1.3-0.6-1.6l-1.3-0.6l1.2-2.6l1.3,0.6c1.9,0.9,2.8,3.4,2,5.3c-0.4,0.8-1,1.4-1.5,1.9c-0.4,0.4-0.8,0.8-0.9,1.2
			c-0.1,0.2,0,0.5,0.1,0.7c0.2,0.2,0.4,0.4,0.6,0.4l1.4,0.1L235.3,66z"/>
	</g>
	<g>
		<path class="st1" d="M195.8,22.1l-2.2-1.9l0.9-1.1c1.2-1.4,1.3-3.6,0.3-5.1c-0.1-0.1-0.1-0.2-0.2-0.3c-0.3-0.5-0.8-1.1-0.9-1.9
			c-0.2-1.6,0.7-3,2.9-4.1l1.3-0.7l1.3,2.5l-1.3,0.7c-1.2,0.6-1.4,1.1-1.4,1.2c0,0.1,0.2,0.4,0.4,0.6c0.1,0.1,0.2,0.2,0.2,0.3
			c1.7,2.5,1.5,6.2-0.5,8.5L195.8,22.1z"/>
	</g>
	<g>
		<path class="st1" d="M87.8,69.6l-1.3-0.5c-3.2-1.3-5.9-3.6-7.6-6.6l-0.7-1.2l2.5-1.4l0.7,1.2c1.4,2.4,3.6,4.3,6.1,5.3l1.3,0.5
			L87.8,69.6z"/>
	</g>
	<g>
		<path class="st1" d="M4.5,40.3c-3.1,0-6.2-2.2-7-5.3l-0.4-1.4l2.8-0.7l0.4,1.4c0.6,2.1,3.1,3.6,5.2,3.1L6.8,37l0.7,2.8l-1.4,0.3
			C5.6,40.2,5,40.3,4.5,40.3z"/>
	</g>
	<g>
		<path class="st1" d="M98.2,118.9l-2.9-0.1l0-1.4c0-2,2-3.3,3.8-3.4c1.3-0.1,2.5,0.4,3.5,0.8l0.4,0.1c0.7,0.3,1.7,0.6,2.4,0.4
			c0.3-0.1,0.5-0.5,0.5-0.6l-0.7-1.2l2.4-1.5l0.7,1.2c0.5,0.8,0.5,1.7,0.2,2.6c-0.4,1-1.3,1.9-2.3,2.2c-1.5,0.5-3.1,0-4.3-0.4
			l-0.4-0.2c-0.8-0.3-1.6-0.6-2.3-0.6c-0.5,0-1,0.4-1,0.6L98.2,118.9z"/>
	</g>
	<g>
		<path class="st1" d="M189.7,54.6l-2.8-0.5l0.2-1.4c0.1-0.4-0.1-0.8-0.3-1.2c-0.3-0.4-0.7-0.6-1.1-0.7c-0.4-0.1-0.8,0.1-1.2,0.4
			c-0.4,0.3-0.6,0.7-0.6,1.1l-0.1,1.4l-2.8-0.2l0.1-1.4c0.1-1.2,0.7-2.3,1.7-3.1c1-0.8,2.2-1.1,3.4-1c1.2,0.2,2.3,0.8,3,1.8
			c0.7,1,1,2.3,0.8,3.4L189.7,54.6z"/>
	</g>
	<g>
		<path class="st1" d="M25.1,153.7c-1.5,0-3-0.6-4-1.7c-1.2-1.3-1.7-3.1-1.4-4.8l0.3-1.4l2.8,0.5l-0.3,1.4c-0.2,0.8,0.1,1.7,0.7,2.3
			c0.6,0.6,1.4,0.9,2.3,0.8l1.4-0.2l0.4,2.8l-1.4,0.2C25.5,153.7,25.3,153.7,25.1,153.7z"/>
	</g>
	<g>
		<path class="st1" d="M412.3,287.4l1.1-2.6l1.3,0.5c1.3,0.5,2.9,0.2,3.8-0.8c1-0.9,1.3-2.6,0.8-3.8l-0.5-1.3l2.7-1l0.5,1.3
			c0.9,2.3,0.3,5.1-1.5,6.9c-1.8,1.8-4.6,2.3-6.9,1.4L412.3,287.4z"/>
	</g>
	<g>
		<path class="st2" d="M267.1,33.5l-0.9-0.7c-0.4-0.4-0.7-0.9-0.7-1.5c0-0.7,0.4-1.4,0.9-1.9c0.5-0.4,1-0.5,1.5-0.7
			c0.2,0,0.3-0.1,0.5-0.2c0.2-0.1,0.3-0.2,0.4-0.2c-0.1-0.1-0.4-0.3-0.5-0.5c-1.1-0.9-1.4-1.9-1.1-2.8c0.3-0.9,1.4-1.7,3.4-1.2
			l1.1,0.3l-0.6,2.2l-1.1-0.3c-0.1,0-0.2-0.1-0.3-0.1c0,0,0,0,0,0c0.6,0.5,1.4,1.2,1.4,2.2c0,1-0.7,1.9-1.9,2.4
			c-0.2,0.1-0.4,0.1-0.6,0.2c-0.3,0.1-0.6,0.2-0.7,0.3l0.6,0.5L267.1,33.5z"/>
	</g>
	<g>
		<polygon class="st1" points="362.1,-5.9 363.4,-3.6 366,-3.1 364.2,-1.2 364.6,1.5 362.1,0.4 359.7,1.5 360,-1.2 358.2,-3.1 
			360.8,-3.6 		"/>
	</g>
	<g>
		<polygon class="st1" points="411.9,70.1 413,72.1 415.3,72.6 413.7,74.3 414,76.6 411.9,75.6 409.8,76.6 410.1,74.3 408.5,72.6 
			410.8,72.1 		"/>
	</g>
	<g>
		<polygon class="st1" points="397.6,175.5 398.7,177.5 401,177.9 399.4,179.7 399.7,182 397.6,181 395.5,182 395.8,179.7 
			394.2,177.9 396.5,177.5 		"/>
	</g>
	<g>
		<path class="st1" d="M35,280.9h1.9v1.9c0,0.6,0.5,1.1,1.1,1.1c0.6,0,1.1-0.5,1.1-1.1v-1.9h1.9c0.6,0,1.1-0.5,1.1-1.1
			s-0.5-1.1-1.1-1.1h-1.9v-1.9c0-0.6-0.5-1.1-1.1-1.1c-0.6,0-1.1,0.5-1.1,1.1v1.9H35c-0.6,0-1.1,0.5-1.1,1.1S34.4,280.9,35,280.9z"
			/>
	</g>
	<g>
		<path class="st1" d="M36.5,209.6c-2.2,0-5.8-3.8-6-5.6l-0.2-1.4l2.8-0.4l0.2,1.4c0.2,0.8,2.4,2.9,3.2,3.1l1.3-0.1l0.3,2.8
			l-1.4,0.2C36.6,209.6,36.6,209.6,36.5,209.6z M36.5,206.7L36.5,206.7L36.5,206.7z"/>
	</g>
	<g>
		<path class="st1" d="M100.3,322.7l-0.6-1.3c-0.8-1.7-0.1-3.5,0.4-4.9c0.5-1.2,0.5-2,0.2-2.4l-0.8-1.2l2.3-1.6l0.8,1.2
			c1.3,1.8,0.4,4.2,0.1,5.1c-0.4,1-0.8,2-0.5,2.7l0.6,1.3L100.3,322.7z"/>
	</g>
	<g>
		<path class="st1" d="M303.1,368.1l-1.1-0.9c-1.5-1.2-2.4-3-2.6-5.1c-0.2-2,0.4-4,1.7-5.5l0.9-1.1l2.1,1.9l-0.9,1.1
			c-0.7,0.8-1.1,2.1-1,3.3c0.1,1.3,0.7,2.4,1.6,3.1l1.1,0.9L303.1,368.1z"/>
	</g>
	<g>
		<path class="st1" d="M354.2,308.3l-1.3-0.7c-2.8-1.5-4.1-5-3-8l0.5-1.3l2.7,1.1l-0.5,1.3c-0.6,1.6,0.1,3.6,1.6,4.4l1.3,0.7
			L354.2,308.3z"/>
	</g>
	<g>
		<path class="st1" d="M280.2,298.7c-0.8,0-1.5-0.4-2-1c-0.7-0.9-0.7-1.9-0.7-2.6c0-0.5,0-1-0.2-1.3c0,0,0,0-0.1,0l-0.6,0.8
			l-1.8-1.4l0.7-0.9c0.4-0.5,1-0.8,1.6-0.8c0,0,0,0,0,0c0.8,0,1.5,0.4,2,1c0.6,0.9,0.7,1.9,0.7,2.6c0,0.4,0,1,0.2,1.3c0,0,0,0,0.1,0
			l0.6-0.8l1.8,1.4l-0.7,0.9C281.5,298.4,280.9,298.7,280.2,298.7C280.2,298.7,280.2,298.7,280.2,298.7z"/>
	</g>
	<g>
		<path class="st1" d="M263.8,373.4l-1-0.6c-2.4-1.5-3.5-4.8-2.4-7.4l0.5-1l2.1,0.9l-0.5,1c-0.7,1.6,0,3.6,1.4,4.5l1,0.6
			L263.8,373.4z"/>
	</g>
	<g>
		<path class="st1" d="M155.8,374.5l-1.4-1.8l0.9-0.7c1-0.8,2-1.7,1.9-2.6c0-0.4-0.2-0.8-0.4-1.3l-0.1-0.3c-0.3-0.7-0.6-1.7-0.3-2.7
			c0.2-0.7,0.7-1.3,1.3-1.6c0.5-0.3,1.1-0.4,1.7-0.2l1.1,0.3l-0.7,2.2l-1-0.3c-0.1,0-0.1,0.1-0.1,0.2c-0.1,0.3,0.1,0.9,0.2,1.3
			l0.1,0.3c0.2,0.6,0.5,1.3,0.5,2.1c0,2.1-1.8,3.6-2.8,4.4L155.8,374.5z"/>
	</g>
	<g>
		<path class="st1" d="M127.4,344.6c-0.3,0-0.7,0-1.2-0.2l-1.1-0.3l0.6-2.2l1.1,0.3c0.1,0,0.2,0.1,0.3,0.1c0,0,0,0,0,0
			c-0.6-0.5-1.4-1.2-1.4-2.2c0-1,0.7-1.9,1.9-2.4c0.2-0.1,0.4-0.1,0.6-0.2c0.3-0.1,0.6-0.2,0.7-0.3l-0.6-0.5l1.4-1.8l0.9,0.7
			c0.4,0.4,0.7,0.9,0.7,1.5c0,0.7-0.4,1.4-0.9,1.9c-0.5,0.4-1,0.5-1.5,0.7c-0.2,0-0.3,0.1-0.5,0.2c-0.2,0.1-0.3,0.2-0.4,0.2
			c0.1,0.1,0.4,0.3,0.5,0.5c1.1,0.9,1.4,1.9,1.1,2.8C129.4,344,128.7,344.6,127.4,344.6z"/>
	</g>
	<g>
		<path class="st1" d="M179.3,281.1l-1.8-1.4l0.7-0.9c0.4-0.4,0.5-1,0.4-1.7c-0.1-0.6-0.4-1.2-0.9-1.5l-0.9-0.7l1.3-1.9l0.9,0.7
			c1,0.7,1.6,1.8,1.8,3.1c0.2,1.3-0.2,2.5-0.9,3.4L179.3,281.1z"/>
	</g>
	<g>
		<path class="st1" d="M230.3,247.5l-0.8-0.8c-0.7-0.6-1.7-0.9-2.7-1.2l-0.5-0.2c-0.8-0.2-3.1-0.9-4-2.9l-0.5-1l2.1-0.9l0.5,1
			c0.3,0.7,1.1,1.2,2.6,1.6l0.5,0.1c1.2,0.3,2.6,0.7,3.7,1.8l0.8,0.8L230.3,247.5z"/>
	</g>
	<g>
		<path class="st1" d="M121.1,246.1l-0.4-1.1c-0.4-1.2-0.2-2.5,0.5-3.6c0.8-1.1,2-1.8,3.2-1.8c0,0,0,0,0,0l1.1,0l0,2.3l-1.1,0
			c0,0,0,0,0,0c-0.5,0-1,0.3-1.3,0.8c-0.3,0.5-0.4,1.1-0.3,1.5l0.4,1.1L121.1,246.1z"/>
	</g>
	<g>
		<path class="st1" d="M124.7,298.1l-0.1-1.1c-0.1-0.7-0.5-1.4-1.1-1.9c-0.6-0.5-1.4-0.7-2.1-0.6l-1.1,0.2l-0.3-2.3l1.1-0.2
			c1.3-0.2,2.7,0.2,3.9,1.1c1.1,0.9,1.8,2.2,2,3.5l0.1,1.1L124.7,298.1z"/>
	</g>
	<g>
		<path class="st1" d="M48.5,359.2l-1.1-2l1-0.6c0.9-0.5,1.9-0.7,2.7-0.8l0.4-0.1c0.8-0.1,1.5-0.3,2-0.8c0.3-0.3,0.4-0.8,0.2-1
			l-0.8-0.9l1.7-1.5l0.8,0.9c1.1,1.3,0.7,3.1-0.4,4.1c-0.9,0.9-2.1,1.2-3.2,1.4l-0.4,0.1c-0.7,0.1-1.4,0.2-2,0.6L48.5,359.2z"/>
	</g>
	<g>
		<path class="st1" d="M4.5,364.8l-2.2-0.4l0.2-1.1c0.2-1.4,0.5-3,1.4-4.3c1.1-1.7,2.9-2.7,4.5-2.4l1.1,0.1l-0.3,2.3l-1.1-0.1
			c-0.9-0.1-1.8,0.6-2.3,1.4c-0.6,1-0.9,2.3-1.1,3.5L4.5,364.8z"/>
	</g>
	<g>
		<circle class="st1" cx="141.7" cy="322.6" r="1.9"/>
	</g>
	<g>
		<circle class="st1" cx="61.6" cy="310.7" r="2.9"/>
	</g>
	<g>
		<polygon class="st1" points="269,272.9 265.8,272.3 263.2,274.3 262.9,271.1 260.1,269.2 263.1,267.9 264,264.7 266.2,267.1 
			269.5,267 267.9,269.9 		"/>
	</g>
	<g>
		<polygon class="st1" points="152.1,290.5 150.6,287.9 147.8,287.4 149.8,285.2 149.4,282.4 152.1,283.6 154.7,282.4 154.3,285.2 
			156.3,287.4 153.5,287.9 		"/>
	</g>
	<g>
		<polygon class="st1" points="421.9,335.9 420.5,333.4 417.7,332.8 419.7,330.7 419.3,327.8 421.9,329 424.6,327.8 424.2,330.7 
			426.2,332.8 423.3,333.4 		"/>
	</g>
	<g>
		<polygon class="st1" points="96.5,412.4 96.5,409.5 94.3,407.7 97,406.8 98.1,404.1 99.8,406.4 102.7,406.6 101,409 101.7,411.8 
			99,410.9 		"/>
	</g>
	<g>
		<polygon class="st1" points="363.3,242.6 361.7,239.7 358.5,239.1 360.7,236.7 360.3,233.4 363.3,234.8 366.3,233.4 365.9,236.7 
			368.1,239.1 364.9,239.7 		"/>
	</g>
	<g>
		<polygon class="st1" points="416.6,243.2 418.8,236 404.5,236.9 		"/>
	</g>
	<g>
		<path class="st1" d="M61.7,171.8h1.9v1.9c0,0.6,0.5,1.1,1.1,1.1c0.6,0,1.1-0.5,1.1-1.1v-1.9h1.9c0.6,0,1.1-0.5,1.1-1.1
			c0-0.6-0.5-1.1-1.1-1.1h-1.9v-1.9c0-0.6-0.5-1.1-1.1-1.1c-0.6,0-1.1,0.5-1.1,1.1v1.9h-1.9c-0.6,0-1.1,0.5-1.1,1.1
			C60.6,171.3,61.1,171.8,61.7,171.8z"/>
	</g>
	<g>
		<path class="st1" d="M4.8,425.8h1.9v1.9c0,0.6,0.5,1.1,1.1,1.1c0.6,0,1.1-0.5,1.1-1.1v-1.9h1.9c0.6,0,1.1-0.5,1.1-1.1
			s-0.5-1.1-1.1-1.1H8.9v-1.9c0-0.6-0.5-1.1-1.1-1.1c-0.6,0-1.1,0.5-1.1,1.1v1.9H4.8c-0.6,0-1.1,0.5-1.1,1.1S4.2,425.8,4.8,425.8z"
			/>
	</g>
	<g>
		<path class="st3" d="M61.1,129.9l-0.3-1.4c-0.9-4.4-0.2-5.2,0.1-5.5c0.2-0.3,0.9-1,5.2-1.8l1.4-0.3l0.5,2.8l-1.4,0.3
			c-1.3,0.2-2.7,0.6-3.4,0.8c0,0.6,0.2,2,0.4,3.1l0.3,1.4L61.1,129.9z"/>
	</g>
	<g>
		<polygon class="st3" points="63.9,203.4 67.5,196.4 60.7,200.2 		"/>
	</g>
	<g>
		<polygon class="st3" points="279.2,379.5 284.9,385.1 283.2,377.4 		"/>
	</g>
	<g>
		<path class="st3" d="M50.2,183.2l-2.9-0.1l0.1-1.4c-0.1-1.2-4.1-5-6.1-6.1l-1.3-0.7l1.4-2.5l1.3,0.7c1.2,0.6,7.7,5.5,7.6,8.7
			L50.2,183.2z"/>
	</g>
	<g>
		<path class="st3" d="M91.7,151.9l-1.4-0.1c-1.3-0.1-2.4-1.3-2.6-2.9c0-0.3,0-0.6-0.1-0.9c0-0.3,0-0.6-0.1-0.8l-0.7,0.6l-1.9-2.1
			l1.1-0.9c0.6-0.5,1.3-0.7,2-0.5c0.9,0.2,1.7,0.9,2,1.7c0.3,0.7,0.3,1.4,0.3,2c0,0.2,0,0.4,0,0.6c0,0.2,0.1,0.3,0.1,0.4l1.3,0.1
			L91.7,151.9z"/>
	</g>
	<g>
		<path class="st3" d="M415.7,422.7l0.9-1.1c0.8-1,2.4-1.3,3.8-0.6c0.3,0.1,0.5,0.3,0.8,0.4c0.2,0.1,0.5,0.3,0.7,0.4l-0.1-0.9
			l2.8-0.4l0.2,1.4c0.1,0.7-0.2,1.4-0.7,2c-0.7,0.6-1.6,0.9-2.5,0.7c-0.7-0.1-1.3-0.5-1.8-0.8c-0.2-0.1-0.4-0.2-0.5-0.3
			c-0.2-0.1-0.3-0.1-0.4-0.1l-0.8,1L415.7,422.7z"/>
	</g>
	<g>
		<path class="st3" d="M111.2,138.3l-0.8-1.2c-1-1.4-1.2-3.2-0.7-4.8c0.5-1.6,1.8-3,3.4-3.6l1.3-0.5l1,2.7l-1.3,0.5
			c-0.8,0.3-1.4,1-1.6,1.7c-0.2,0.8-0.1,1.7,0.4,2.4l0.8,1.2L111.2,138.3z"/>
	</g>
	<g>
		<path class="st3" d="M105.2,188.3l-2.4-1.5l0.8-1.2c0.2-0.4,0.3-0.9,0.1-1.4c-0.2-0.5-0.5-0.9-0.9-1.1l-1.3-0.6l1.1-2.6l1.3,0.6
			c1.2,0.5,2.1,1.6,2.5,2.9c0.4,1.3,0.2,2.7-0.5,3.8L105.2,188.3z"/>
	</g>
	<g>
		<path class="st3" d="M346.3,396.6l1.3-2.5l1.3,0.7c0.4,0.2,0.9,0.2,1.4,0c0.5-0.2,0.9-0.6,1-1l0.4-1.4l2.7,0.9l-0.4,1.4
			c-0.4,1.2-1.4,2.2-2.6,2.8c-1.3,0.5-2.7,0.5-3.8-0.1L346.3,396.6z"/>
	</g>
	<g>
		<path class="st3" d="M103.6,230.3l-2.8-0.2l0.1-1.4c0-0.4-0.3-0.9-0.9-1.5l-0.4-0.3c-0.7-0.7-1.6-1.4-2-2.5c-0.4-1-0.3-2.1,0.2-3
			c0.4-0.8,1.1-1.2,2-1.4l1.4-0.2l0.4,2.8l-1.3,0.2c-0.1,0.1-0.1,0.4,0,0.5c0.2,0.5,0.7,0.9,1.3,1.4l0.4,0.4c1.3,1.2,2,2.5,1.8,3.8
			L103.6,230.3z"/>
	</g>
	<g>
		<path class="st3" d="M161.2,162.1l-1.3-0.5c-1.7-0.6-2.8-2.5-2.6-4.5c0.1-1.6,0.8-3,1.4-4.1l0.7-1.3l2.5,1.3l-0.7,1.3
			c-0.5,1-1,2-1.1,2.9c0,0.7,0.3,1.5,0.8,1.7l1.3,0.5L161.2,162.1z"/>
	</g>
	<g>
		<path class="st3" d="M201.3,139.3l-0.6-2.8l1.4-0.3c0.5-0.1,0.8-0.7,0.8-1.1c-0.1-0.4-0.4-0.9-0.7-1.4l-0.1-0.1
			c-0.1-0.2-0.2-0.3-0.4-0.4c-0.5-0.5-1.1-1.3-1.1-2.3c0-1.7,0.8-2.4,1.5-2.7c1.9-0.9,4.5,1.2,5.5,2.1l1.1,0.9l-1.9,2.1l-1.1-0.9
			c-0.7-0.6-1.7-1.2-2.2-1.5c0,0,0,0,0,0c0,0,0.2,0.3,0.4,0.5c0.2,0.2,0.4,0.5,0.6,0.7l0.1,0.1c0.5,0.7,1,1.5,1.2,2.6
			c0.3,2-1,3.9-3,4.3L201.3,139.3z"/>
	</g>
	<g>
		<path class="st3" d="M246.7,389.5l2.4,1.5l-0.8,1.2c-0.3,0.4-0.1,1.1,0.3,1.4c0.3,0.2,0.9,0.4,1.5,0.5l0.2,0c0.2,0,0.4,0,0.6,0.1
			c0.7,0,1.7,0.1,2.4,0.9c1.2,1.2,1.2,2.3,0.9,3c-0.7,1.9-4,2.4-5.4,2.5l-1.4,0.1l-0.2-2.8l1.4-0.1c1-0.1,2.1-0.3,2.6-0.6
			c0,0,0,0,0,0c-0.1,0-0.4,0-0.6,0c-0.3,0-0.6,0-0.9-0.1l-0.2,0c-0.8-0.2-1.8-0.3-2.6-1c-1.6-1.2-2-3.5-1-5.2L246.7,389.5z"/>
	</g>
	<g>
		<path class="st3" d="M191,206.5l-1.3-0.6c-1.9-0.9-2.8-3.4-2-5.3c0.4-0.8,1-1.4,1.5-1.9c0.4-0.4,0.8-0.8,0.9-1.2
			c0.1-0.2,0-0.5-0.1-0.7c-0.2-0.2-0.4-0.4-0.6-0.4l-1.4-0.1l0.3-2.8l1.4,0.1c1.1,0.1,2.1,0.7,2.7,1.7c0.6,1,0.8,2.2,0.4,3.2
			c-0.3,1-1,1.7-1.6,2.3c-0.4,0.4-0.7,0.7-0.9,1.1c-0.2,0.5,0.1,1.3,0.6,1.6l1.3,0.6L191,206.5z"/>
	</g>
	<g>
		<path class="st3" d="M60.1,404.7l1.3-0.5c2-0.7,4.4,0.4,5.1,2.4c0.3,0.8,0.3,1.7,0.3,2.4c0,0.6,0,1.1,0.2,1.5
			c0.1,0.2,0.3,0.4,0.6,0.4c0.3,0.1,0.6,0,0.7-0.1l1.1-0.9l1.8,2.2l-1.1,0.9c-0.9,0.7-2,0.9-3.2,0.7c-1.1-0.3-2.1-1-2.6-2
			c-0.5-0.9-0.4-1.9-0.4-2.7c0-0.5,0-1-0.1-1.4c-0.2-0.6-1-0.9-1.5-0.7l-1.3,0.5L60.1,404.7z"/>
	</g>
	<g>
		<path class="st3" d="M343,199.5l-0.7-1.2c-1.4-2.4-3.6-4.3-6.1-5.3l-1.3-0.5l1-2.7l1.3,0.5c3.2,1.2,5.9,3.6,7.6,6.6l0.7,1.2
			L343,199.5z"/>
	</g>
	<g>
		<path class="st3" d="M108.2,388l1.1-0.9c2.1-1.8,3.6-4.3,4.1-7l0.3-1.4l2.8,0.5l-0.3,1.4c-0.6,3.4-2.4,6.5-5.1,8.7l-1.1,0.9
			L108.2,388z"/>
	</g>
	<g>
		<path class="st3" d="M315.9,147.3l-0.7-1.2c-0.5-0.8-0.5-1.7-0.2-2.6c0.4-1,1.3-1.9,2.3-2.2c1.5-0.5,3.1,0,4.3,0.4l0.4,0.2
			c0.8,0.3,1.6,0.6,2.3,0.6c0.5,0,1-0.4,1-0.6l0-1.4l2.9,0.1l0,1.4c0,2-2,3.3-3.8,3.4c-1.3,0-2.5-0.4-3.5-0.8l-0.4-0.2
			c-0.7-0.3-1.7-0.6-2.4-0.4c-0.3,0.1-0.5,0.5-0.5,0.6l0.7,1.2L315.9,147.3z"/>
	</g>
	<g>
		<path class="st3" d="M238,218.5c-0.2,0-0.4,0-0.5,0c-1.2-0.2-2.3-0.8-3-1.8c-0.7-1-1-2.3-0.8-3.4l0.2-1.4l2.8,0.5l-0.2,1.4
			c-0.1,0.4,0.1,0.8,0.3,1.2c0.3,0.4,0.7,0.6,1.1,0.7c0.4,0.1,0.8-0.1,1.2-0.4c0.4-0.3,0.6-0.7,0.6-1.1l0.1-1.4l2.8,0.2l-0.1,1.4
			c-0.1,1.2-0.7,2.3-1.7,3.1C240,218.1,239,218.5,238,218.5z"/>
	</g>
	<g>
		<path class="st3" d="M388.1,155.5l-1.9-2.1l1.1-0.9c0.9-0.8,1.4-2.2,1.1-3.4l-0.3-1.4l2.8-0.6l0.3,1.4c0.4,2.2-0.4,4.6-2,6.1
			L388.1,155.5z"/>
	</g>
	<g>
		<path class="st3" d="M401.1,123.4l-1.2-0.8c-2.2-1.5-3.1-4.5-2.4-7l0.4-1.4l2.7,0.9l-0.4,1.4c-0.4,1.4,0.1,3,1.3,3.8l1.2,0.8
			L401.1,123.4z"/>
	</g>
	<g>
		<path class="st3" d="M390.5,209c-1.3,0-2.4-0.9-3-2c-0.3-0.6-0.5-1.1-0.6-1.6c-0.1-0.3-0.2-0.6-0.3-0.9c-0.2-0.4-0.4-0.6-0.5-0.7
			l-1.4,0l0-2.9l1.4,0c0,0,0,0,0.1,0c1.3,0,2.5,0.9,3.2,2.4c0.2,0.4,0.3,0.8,0.4,1.2c0.1,0.4,0.2,0.8,0.4,1.1
			c0.1,0.3,0.4,0.4,0.5,0.5l1.4-0.4l0.7,2.8l-1.4,0.4C391,209,390.8,209,390.5,209z"/>
	</g>
	<g>
		<path class="st3" d="M201.5,417.2c-0.1,1.3-1.1,2.4-2.2,2.8c-0.6,0.3-1.2,0.4-1.7,0.5c-0.3,0.1-0.6,0.1-0.9,0.2
			c-0.4,0.1-0.7,0.4-0.7,0.5l-0.1,1.4l-2.8-0.2l0.1-1.4c0,0,0,0,0-0.1c0.1-1.3,1.1-2.5,2.6-3c0.4-0.1,0.8-0.2,1.2-0.3
			c0.4-0.1,0.8-0.2,1.1-0.3c0.3-0.1,0.5-0.3,0.5-0.4l-0.3-1.4l2.8-0.5l0.3,1.4C201.5,416.7,201.5,416.9,201.5,417.2z"/>
	</g>
	<g>
		<path class="st3" d="M384.7,72.9l-2.4-1.5l0.8-1.2c1.4-2.3,1.8-5.1,1.1-7.7l-0.4-1.4l2.7-0.8l0.4,1.4c0.9,3.3,0.4,7-1.4,10
			L384.7,72.9z"/>
	</g>
	<g>
		<path class="st3" d="M135,51.8l-0.7-1.2c-0.8-1.4-1-3.1-0.4-5.4c0.1-0.3,0.2-0.6,0.3-1c0.3-1,0.6-2,0.5-2.9
			c-0.1-0.8-0.6-1.7-1.2-1.8l-1.4-0.1l0.2-2.8l1.4,0.1c2.3,0.2,3.7,2.4,3.8,4.5c0.1,1.4-0.3,2.6-0.6,3.9c-0.1,0.3-0.2,0.6-0.2,0.9
			c-0.4,1.5-0.3,2.5,0.1,3.2l0.7,1.2L135,51.8z"/>
	</g>
	<g>
		<path class="st3" d="M35.8,239.3l-1.1-0.8c-2.4-1.8-2.4-4-1.6-5.6c1.1-2.1,4-3.6,7-2.6l1.3,0.5l-0.9,2.7l-1.3-0.5
			c-1.5-0.5-3,0.2-3.5,1.2c-0.1,0.3-0.5,1,0.7,2l1.1,0.8L35.8,239.3z"/>
	</g>
	<g>
		<path class="st3" d="M7.8,279.7l-2.9-0.1l0.1-1.4c-0.1-1.2-4.1-5-6.1-6.1l-1.3-0.7L-1,269l1.3,0.7c1.2,0.6,7.7,5.5,7.6,8.7
			L7.8,279.7z"/>
	</g>
	<g>
		<path class="st3" d="M65,261l-1.4-0.1c-1.3-0.1-2.4-1.3-2.6-2.9c0-0.3,0-0.6-0.1-0.9c0-0.3,0-0.6-0.1-0.8l-0.6,0.6l-1.9-2.1
			l1.1-0.9c0.5-0.5,1.3-0.7,2-0.5c0.9,0.2,1.7,0.9,2,1.7c0.3,0.7,0.3,1.4,0.3,2c0,0.2,0,0.4,0,0.6c0,0.2,0.1,0.3,0.1,0.4l1.3,0.1
			L65,261z"/>
	</g>
	<g>
		<path class="st3" d="M78.5,297.3l-2.4-1.5l0.8-1.2c0.2-0.4,0.3-0.9,0.1-1.4c-0.2-0.5-0.5-0.9-0.9-1.1l-1.3-0.6l1.1-2.6l1.3,0.6
			c1.2,0.5,2.1,1.6,2.5,2.9c0.4,1.3,0.2,2.7-0.5,3.8L78.5,297.3z"/>
	</g>
	<g>
		<path class="st3" d="M76.9,339.4l-2.8-0.2l0.1-1.4c0-0.4-0.3-0.9-0.9-1.5l-0.4-0.3c-0.7-0.7-1.6-1.4-2-2.5c-0.4-1-0.3-2.1,0.2-3
			c0.4-0.8,1.1-1.2,2-1.4l1.4-0.2l0.4,2.8l-1.3,0.2c-0.1,0.1-0.1,0.4,0,0.5c0.2,0.5,0.7,0.9,1.3,1.4l0.4,0.4c1.3,1.2,2,2.5,1.8,3.8
			L76.9,339.4z"/>
	</g>
	<g>
		<path class="st3" d="M134.5,271.2l-1.3-0.5c-1.7-0.6-2.8-2.5-2.6-4.5c0.1-1.6,0.8-3,1.4-4.1l0.7-1.3l2.5,1.3l-0.7,1.3
			c-0.5,1-1,2-1.1,2.9c0,0.7,0.3,1.5,0.8,1.6l1.3,0.5L134.5,271.2z"/>
	</g>
	<g>
		<path class="st3" d="M170.3,242.2l2.5-1.3l0.7,1.3c0.2,0.4,0.9,0.6,1.3,0.5c0.4-0.2,0.8-0.6,1.2-1l0.1-0.1
			c0.7-0.8,1.5-1.6,2.6-1.8c0.8-0.2,1.8,0,2.5,0.5c0.6,0.4,1,1.1,1.1,1.8l0.2,1.4l-2.8,0.3l-0.1-1.2c0,0-0.1,0-0.1,0
			c-0.4,0.1-0.8,0.5-1.1,0.9l-0.1,0.1c-0.5,0.6-1.2,1.4-2.2,1.8c-1.8,0.8-4,0-5-1.8L170.3,242.2z"/>
	</g>
	<g>
		<path class="st3" d="M164.3,315.6L163,315c-1.9-0.9-2.8-3.4-2-5.3c0.4-0.8,1-1.4,1.5-1.9c0.4-0.4,0.8-0.8,0.9-1.2
			c0.1-0.2,0-0.5-0.1-0.7c-0.2-0.2-0.4-0.4-0.6-0.4l-1.4-0.1l0.3-2.8l1.4,0.1c1.1,0.1,2.1,0.7,2.7,1.7c0.6,1,0.8,2.2,0.4,3.2
			c-0.3,1-1,1.7-1.6,2.3c-0.4,0.4-0.7,0.7-0.9,1.1c-0.2,0.5,0.1,1.3,0.6,1.6l1.3,0.6L164.3,315.6z"/>
	</g>
	<g>
		<path class="st3" d="M199,361.3l-1.3-2.5l1.3-0.7c1.2-0.6,1.4-1.1,1.4-1.2c0-0.1-0.2-0.4-0.4-0.6c-0.1-0.1-0.2-0.2-0.2-0.3
			c-1.7-2.5-1.5-6.2,0.5-8.5l0.9-1.1l2.2,1.9l-0.9,1.1c-1.2,1.4-1.3,3.6-0.3,5.1c0.1,0.1,0.1,0.2,0.2,0.3c0.3,0.5,0.8,1.1,0.9,1.9
			c0.2,1.6-0.7,3-2.9,4.1L199,361.3z"/>
	</g>
	<g>
		<path class="st3" d="M316.3,308.5l-0.7-1.2c-1.3-2.4-3.6-4.3-6.1-5.3l-1.3-0.5l1-2.7l1.3,0.5c3.2,1.3,5.9,3.6,7.6,6.6l0.7,1.2
			L316.3,308.5z"/>
	</g>
	<g>
		<path class="st3" d="M385.4,331.9l-0.4-1.4c-0.6-2.1-3.1-3.6-5.2-3.1l-1.4,0.3l-0.7-2.8l1.4-0.3c3.6-0.9,7.6,1.5,8.6,5.1l0.4,1.4
			L385.4,331.9z"/>
	</g>
	<g>
		<path class="st3" d="M287.8,260.4l0-1.4c0-0.9,0.4-1.7,1.2-2.3c0.9-0.7,2.1-0.9,3.1-0.7c1.6,0.4,2.7,1.6,3.5,2.6l0.3,0.3
			c0.5,0.7,1,1.4,1.7,1.7c0.5,0.3,1.1,0.2,1.2,0l0.8-1.2l2.4,1.5l-0.8,1.2c-1.1,1.7-3.4,1.8-5,0.9c-1.1-0.6-1.9-1.6-2.6-2.5
			l-0.2-0.3c-0.5-0.6-1.1-1.4-1.8-1.6c-0.3-0.1-0.7,0.1-0.8,0.3l0,1.4L287.8,260.4z"/>
	</g>
	<g>
		<path class="st3" d="M212.5,314c0.2,0.1,0.3,0.1,0.5,0.2c1.1,0.5,1.9,1.5,2.3,2.6c0.4,1.2,0.3,2.5-0.2,3.5l-0.7,1.3l-2.5-1.3
			l0.7-1.3c0.2-0.4,0.2-0.8,0-1.3c-0.2-0.4-0.4-0.8-0.8-1c-0.4-0.2-0.8-0.2-1.3,0c-0.4,0.2-0.8,0.5-0.9,0.9l-0.5,1.3l-2.6-1.1
			l0.5-1.3c0.4-1.1,1.4-2,2.5-2.4C210.5,313.8,211.6,313.7,212.5,314z"/>
	</g>
	<g>
		<path class="st3" d="M93.6,33.4c0.1,0.1,0.2,0.3,0.4,0.4c0.7,0.9,1,2.2,0.8,3.4c-0.2,1.2-0.8,2.3-1.8,3L91.9,41l-1.6-2.3l1.2-0.8
			c0.3-0.2,0.6-0.6,0.6-1.1c0.1-0.5,0-0.9-0.3-1.2c-0.2-0.3-0.7-0.5-1.1-0.6c-0.5,0-0.9,0.1-1.2,0.3l-1.1,0.9L86.5,34l1.1-0.9
			c0.9-0.8,2.1-1.1,3.4-1C92,32.2,92.9,32.7,93.6,33.4z"/>
	</g>
	<g>
		<path class="st3" d="M179.8,385.2l-2.8-0.5l0.3-1.4c0.2-0.8-0.1-1.7-0.7-2.3c-0.6-0.6-1.4-0.9-2.3-0.8l-1.4,0.2l-0.4-2.8l1.4-0.2
			c1.7-0.2,3.5,0.4,4.7,1.7c1.2,1.3,1.7,3.1,1.4,4.8L179.8,385.2z"/>
	</g>
	<g>
		<path class="st3" d="M419.9,168.4c-2.3,0-4.5-1.3-5.6-3.3c-1.2-2.2-1-5,0.5-7l0.9-1.1l2.3,1.7l-0.9,1.1c-0.8,1.1-0.9,2.7-0.3,3.9
			c0.7,1.2,2.1,1.9,3.5,1.8l1.4-0.1l0.3,2.8l-1.4,0.1C420.3,168.4,420.1,168.4,419.9,168.4z"/>
	</g>
	<g>
		<circle class="st3" cx="84.6" cy="88.1" r="2.7"/>
	</g>
	<g>
		<circle class="st3" cx="242.2" cy="108" r="2.3"/>
	</g>
	<g>
		<circle class="st3" cx="146.5" cy="397.7" r="2.3"/>
	</g>
	<g>
		<path class="st3" d="M199,71.6c0,2.3-1.9,4.1-4.1,4.1c-2.3,0-4.1-1.9-4.1-4.1c0-2.3,1.9-4.1,4.1-4.1C197.1,67.4,199,69.3,199,71.6
			z"/>
	</g>
	<g>
		<path class="st3" d="M386.3,375.3c0,2.3-1.9,4.1-4.1,4.1c-2.3,0-4.1-1.9-4.1-4.1c0-2.3,1.9-4.1,4.1-4.1
			C384.4,371.1,386.3,373,386.3,375.3z"/>
	</g>
	<g>
		<circle class="st3" cx="323.9" cy="12.9" r="2.2"/>
	</g>
	<g>
		<polygon class="st3" points="161.6,15.8 162.7,17.7 164.8,18.2 163.3,19.8 163.6,21.9 161.6,21 159.6,21.9 159.9,19.8 158.4,18.2 
			160.5,17.7 		"/>
	</g>
	<g>
		<polygon class="st3" points="37.1,312.5 40.8,305.4 34,309.3 		"/>
	</g>
	<g>
		<polygon class="st3" points="34.8,374.3 33.5,372 30.9,371.5 32.7,369.5 32.3,366.9 34.8,368 37.2,366.9 36.9,369.5 38.7,371.5 
			36.1,372 		"/>
	</g>
	<g>
		<polygon class="st3" points="-0.7,192.9 -1.8,190.9 -4.1,190.4 -2.5,188.7 -2.8,186.4 -0.7,187.4 1.4,186.4 1.1,188.7 2.7,190.4 
			0.4,190.9 		"/>
	</g>
	<g>
		<path class="st3" d="M275.2,76.3c-1.1,0-2.3-0.4-3.2-1.2c-1.1-0.9-1.8-2.2-2-3.5l-0.1-1.1l2.3-0.2l0.1,1.1
			c0.1,0.7,0.5,1.4,1.1,1.9c0.6,0.5,1.4,0.7,2.1,0.6l1.1-0.2l0.3,2.3l-1.1,0.2C275.6,76.3,275.4,76.3,275.2,76.3z"/>
	</g>
	<g>
		<path class="st3" d="M12.2,74.8c-1.3,0-2.7-0.6-3.6-1.6c-1.2-1.3-1.6-3.2-1-4.9L8.1,67l2.7,1l-0.5,1.3c-0.2,0.7-0.1,1.5,0.4,2
			c0.5,0.5,1.3,0.8,2,0.6l1.4-0.4l0.7,2.8l-1.4,0.4C13,74.7,12.6,74.8,12.2,74.8z"/>
	</g>
	<g>
		<circle class="st3" cx="43.8" cy="1.9" r="2.7"/>
	</g>
	<g>
		<path class="st1" d="M306.9,189.7c-0.8,0-1.5-0.4-2-1c-0.7-0.9-0.7-1.9-0.7-2.6c0-0.5,0-1-0.2-1.3c0,0,0,0-0.1,0l-0.6,0.8
			l-1.8-1.4l0.7-0.9c0.4-0.5,1-0.8,1.6-0.8c0,0,0,0,0,0c0.8,0,1.5,0.4,2,1c0.6,0.9,0.7,1.9,0.7,2.6c0,0.4,0,1,0.2,1.3c0,0,0,0,0.1,0
			l0.6-0.8l1.8,1.4l-0.7,0.9C308.2,189.4,307.6,189.7,306.9,189.7C306.9,189.7,306.9,189.7,306.9,189.7z"/>
	</g>
	<g>
		<path class="st1" d="M153.6,65.6c-0.4,0.6-1.2,1-1.9,1c-1.1,0-2-0.6-2.5-1c-0.4-0.3-0.9-0.6-1.2-0.6c0,0,0,0-0.1,0l0.3,0.9
			l-2.2,0.7l-0.3-1.1c-0.2-0.6-0.1-1.2,0.3-1.8c0,0,0,0,0,0c0.4-0.6,1.2-1,1.9-1c1.1,0,1.9,0.6,2.5,1c0.4,0.2,0.9,0.6,1.2,0.6
			c0,0,0,0,0.1,0l-0.3-0.9l2.2-0.7l0.3,1.1C154.1,64.4,153.9,65.1,153.6,65.6C153.6,65.6,153.6,65.6,153.6,65.6z"/>
	</g>
	<g>
		<path class="st1" d="M154.1,235.6c-0.3,0-0.7,0-1.2-0.2l-1.1-0.3l0.6-2.2l1.1,0.3c0.1,0,0.2,0.1,0.3,0.1c0,0,0,0,0,0
			c-0.6-0.5-1.4-1.2-1.4-2.3c0-1,0.7-1.9,1.9-2.4c0.2-0.1,0.4-0.1,0.6-0.2c0.3-0.1,0.6-0.2,0.7-0.3l-0.6-0.5l1.4-1.8l0.9,0.7
			c0.4,0.4,0.7,0.9,0.7,1.5c0,0.7-0.4,1.4-0.9,1.9c-0.5,0.4-1,0.5-1.5,0.7c-0.2,0-0.3,0.1-0.5,0.2c-0.2,0.1-0.3,0.2-0.4,0.2
			c0.1,0.1,0.4,0.3,0.5,0.5c1.1,0.9,1.4,1.9,1.1,2.8C156.1,234.9,155.4,235.6,154.1,235.6z"/>
	</g>
	<g>
		<path class="st1" d="M222.2,406.7c-0.1,0.3-0.3,0.6-0.6,1l-0.7,0.9l-1.8-1.4l0.7-0.9c0.1-0.1,0.1-0.2,0.2-0.3c0,0,0,0-0.1,0
			c-0.7,0.3-1.6,0.8-2.6,0.4c-0.9-0.4-1.5-1.4-1.4-2.7c0-0.2,0-0.4,0.1-0.6c0-0.3,0.1-0.6,0-0.8l-0.7,0.4l-1-2l1-0.5
			c0.5-0.3,1.1-0.3,1.6,0c0.6,0.3,1.1,0.9,1.3,1.6c0.1,0.6,0.1,1.2,0,1.7c0,0.2,0,0.3,0,0.5c0,0.2,0,0.3,0,0.4
			c0.2,0,0.5-0.2,0.6-0.3c1.2-0.6,2.3-0.5,3,0.2C222.4,404.7,222.7,405.6,222.2,406.7z"/>
	</g>
	<g>
		<path class="st1" d="M206,172l-1.8-1.4l0.7-0.9c0.4-0.4,0.5-1,0.4-1.7c-0.1-0.6-0.4-1.2-0.9-1.5l-0.9-0.7l1.3-1.9l0.9,0.7
			c1,0.7,1.6,1.8,1.8,3.1c0.2,1.3-0.2,2.5-0.9,3.4L206,172z"/>
	</g>
	<g>
		<path class="st1" d="M257,138.4l-0.8-0.8c-0.7-0.6-1.7-0.9-2.7-1.2l-0.5-0.2c-0.8-0.2-3.1-0.9-4-2.9l-0.5-1l2.1-0.9l0.5,1
			c0.3,0.7,1.1,1.2,2.6,1.6l0.5,0.1c1.2,0.3,2.6,0.7,3.7,1.8l0.8,0.8L257,138.4z"/>
	</g>
	<g>
		<path class="st1" d="M147.8,137l-0.4-1.1c-0.4-1.2-0.2-2.5,0.5-3.6c0.8-1.1,2-1.8,3.2-1.8c0,0,0,0,0,0l1.1,0l0,2.3l-1.1,0
			c0,0,0,0,0,0c-0.5,0-1,0.3-1.3,0.8c-0.3,0.5-0.4,1.1-0.3,1.5l0.4,1.1L147.8,137z"/>
	</g>
	<g>
		<path class="st1" d="M151.4,189l-0.1-1.1c-0.1-0.7-0.5-1.4-1.1-1.9c-0.6-0.5-1.4-0.7-2.1-0.6l-1.1,0.2l-0.3-2.3l1.1-0.2
			c1.3-0.2,2.7,0.2,3.9,1.1c1.1,0.9,1.8,2.2,2,3.5l0.1,1.1L151.4,189z"/>
	</g>
	<g>
		<path class="st1" d="M298.4,407l-0.1-1.1c-0.1-0.7-0.5-1.4-1.1-1.9c-0.6-0.5-1.4-0.7-2.1-0.6l-1.1,0.2l-0.3-2.3l1.1-0.2
			c1.3-0.2,2.7,0.2,3.9,1.1c1.1,0.9,1.8,2.2,2,3.5l0.1,1.1L298.4,407z"/>
	</g>
	<g>
		<circle class="st1" cx="168.4" cy="213.6" r="1.9"/>
	</g>
	<g>
		<circle class="st1" cx="48.7" cy="392.5" r="1.9"/>
	</g>
	<g>
		<polygon class="st4" points="355.5,33.6 356.7,24.4 362.2,28.3 		"/>
	</g>
	<g>
		<path class="st4" d="M373.7,114.2l-2.8-0.6l0.3-1.4c0.6-2.9,2.6-5.3,5.3-6.4l1.3-0.5l1,2.7l-1.3,0.5c-1.8,0.7-3.2,2.4-3.6,4.3
			L373.7,114.2z"/>
	</g>
	<g>
		<path class="st4" d="M168.2,93.7l-1.4-0.4c-2.8-0.8-4.7-3.8-4.2-6.7c0.2-1,0.6-1.8,0.9-2.6c0.2-0.5,0.4-0.9,0.6-1.4
			c0.3-0.8,0.1-1.7-0.3-1.9l-1.3-0.6l1.3-2.6l1.3,0.6c1.9,1,2.3,3.4,1.7,5.3c-0.2,0.6-0.5,1.2-0.7,1.7c-0.3,0.7-0.6,1.3-0.7,1.9
			c-0.2,1.4,0.8,3,2.2,3.5L169,91L168.2,93.7z"/>
	</g>
	<g>
		<path class="st4" d="M30.3,94.6l2.8-0.4l0.2,1.4c0,0.1,0.1,0.3,0.4,0.5c0.5,0.3,1.3,0.5,2,0.4c0.7-0.1,1.3-0.4,2-0.6
			c0.9-0.3,1.8-0.7,2.9-0.8c1.5-0.2,3.1,0.3,4.1,1.2c0.8,0.7,1.2,1.7,1.2,2.7l0,1.4l-2.9,0l0-1.4c0-0.1,0-0.3-0.3-0.5
			c-0.4-0.4-1.2-0.6-1.8-0.5c-0.7,0.1-1.5,0.4-2.2,0.7c-0.8,0.3-1.6,0.6-2.5,0.8c-1.5,0.3-3.1-0.1-4.2-0.9c-0.8-0.6-1.4-1.5-1.5-2.4
			L30.3,94.6z"/>
	</g>
	<g>
		<path class="st4" d="M0.5,151.1l-0.7-1.3c-1.3-2.4-3.8-4.2-6.6-4.5l-1.4-0.2l0.3-2.8l1.4,0.2c3.6,0.4,7,2.7,8.7,6l0.7,1.3
			L0.5,151.1z"/>
	</g>
	<g>
		<path class="st4" d="M59.7,31.5c-0.8,0-1.5-0.3-2.1-0.8c-1-0.8-1.7-2.2-1.8-3.7c0-0.8,0-1.5,0.1-2.2c0.1-0.8,0.2-1.6,0-2.3
			c-0.1-0.5-0.5-1-0.9-1.2c-0.2-0.1-0.2,0-0.3,0l-1.2,0.8l-1.6-2.4l1.2-0.8c0.9-0.6,1.9-0.7,2.9-0.3c1.3,0.5,2.4,1.8,2.6,3.3
			c0.2,1.1,0.1,2.2,0,3.1c-0.1,0.6-0.1,1.2-0.1,1.8c0,0.6,0.3,1.3,0.7,1.6c0.2,0.2,0.3,0.1,0.4,0.1l1.4-0.2l0.5,2.8l-1.4,0.2
			C60,31.5,59.9,31.5,59.7,31.5z"/>
	</g>
	<g>
		<path class="st4" d="M12,26.6l-2.1-1.9l1-1.1c0.5-0.5,0.1-1.7-0.5-2.5c-0.3-0.4-0.6-0.8-1-1.2c-0.7-0.8-1.5-1.7-2-2.8
			c-0.5-1.3-0.5-2.9,0.2-4c0.5-0.9,1.3-1.6,2.3-1.7l1.4-0.2l0.5,2.8l-1.4,0.2c0,0-0.2,0-0.3,0.3c-0.2,0.4-0.2,1.1,0,1.6
			c0.3,0.7,0.9,1.4,1.5,2c0.4,0.4,0.8,0.9,1.2,1.4c1.2,1.7,1.8,4.3,0.3,6.1L12,26.6z"/>
	</g>
	<g>
		<path class="st4" d="M299.7,8.8L299.5,6l1.4-0.1c0.7,0,1.3-1.3,1.3-2.4c0-0.5-0.1-1.1-0.1-1.7c-0.1-1.2-0.3-2.5,0.1-3.9
			c0.4-1.5,1.7-2.8,3.2-3.2c1.2-0.3,2.3-0.1,3.1,0.7l1,1l-2,2.1l-1-1c0,0-0.1-0.1-0.4,0c-0.5,0.1-1,0.7-1.2,1.2
			c-0.2,0.8-0.1,1.8,0,2.8c0.1,0.6,0.2,1.3,0.2,2c0,2.5-1.4,5.2-4,5.3L299.7,8.8z"/>
	</g>
	<g>
		<circle class="st4" cx="422.1" cy="100.4" r="1.9"/>
	</g>
	<g>
		<circle class="st4" cx="118.2" cy="21.4" r="2.4"/>
	</g>
	<g>
		<path class="st4" d="M302.2,94.8c0,2.1-1.7,3.8-3.8,3.8c-2.1,0-3.8-1.7-3.8-3.8s1.7-3.8,3.8-3.8C300.5,91,302.2,92.7,302.2,94.8z"
			/>
	</g>
	<g>
		<path class="st4" d="M420.4,193.8c0,2.1-1.7,3.8-3.8,3.8s-3.8-1.7-3.8-3.8s1.7-3.8,3.8-3.8S420.4,191.7,420.4,193.8z"/>
	</g>
	<g>
		<polygon class="st4" points="226.3,26.2 227.5,28.4 229.9,28.9 228.2,30.7 228.5,33.2 226.3,32.1 224,33.2 224.3,30.7 222.6,28.9 
			225.1,28.4 		"/>
	</g>
	<g>
		<polygon class="st4" points="54.1,82.6 58.6,78.5 61.8,86.4 		"/>
	</g>
	<g>
		<path class="st4" d="M6,221.3l-0.3-1.4c-0.4-2.2,0.4-4.6,2-6.1l1.1-0.9l1.9,2.1L9.6,216c-0.9,0.8-1.4,2.2-1.1,3.4l0.3,1.4L6,221.3
			z"/>
	</g>
	<g>
		<path class="st4" d="M388.1,409.5l0.8-1.2c1.3-1.9,3.5-2.9,5.8-2.8l1.4,0.1l-0.2,2.8l-1.4-0.1c-1.2-0.1-2.5,0.5-3.2,1.5l-0.8,1.2
			L388.1,409.5z"/>
	</g>
	<g>
		<path class="st4" d="M1.3,252.1l-2.7-0.9l0.4-1.4c0.4-1.4-0.1-3-1.3-3.8l-1.2-0.8l1.7-2.3l1.2,0.8c2.2,1.5,3.1,4.5,2.4,7
			L1.3,252.1z"/>
	</g>
	<g>
		<path class="st4" d="M11.2,169.3c-1.3,0-2.5-0.9-3.2-2.4c-0.2-0.4-0.3-0.8-0.4-1.2c-0.1-0.4-0.2-0.8-0.4-1.1
			c-0.1-0.3-0.4-0.4-0.5-0.5l-1.4,0.4l-0.7-2.8l1.4-0.4c1.6-0.4,3,0.6,3.7,1.9c0.3,0.6,0.5,1.1,0.6,1.6c0.1,0.3,0.2,0.6,0.3,0.9
			c0.2,0.4,0.4,0.6,0.5,0.7l1.4,0l0,2.9L11.2,169.3C11.2,169.3,11.2,169.3,11.2,169.3z"/>
	</g>
	<g>
		<path class="st4" d="M10.3,308l-0.4-1.4c-0.9-3.3-0.4-7,1.4-10l0.8-1.2l2.4,1.5l-0.8,1.2c-1.4,2.3-1.8,5.1-1.1,7.7l0.4,1.4
			L10.3,308z"/>
	</g>
	<g>
		<path class="st4" d="M262.9,332.2l-1.4-0.5c-2.2-0.7-3-3.3-2.7-5.2c0.2-1.4,0.9-2.5,1.5-3.6c0.2-0.3,0.3-0.5,0.4-0.8
			c0.7-1.3,0.9-2.3,0.7-3.1l-0.4-1.4l2.7-0.9l0.4,1.4c0.5,1.5,0.2,3.3-0.9,5.3c-0.2,0.3-0.3,0.6-0.5,0.9c-0.5,0.9-1,1.8-1.2,2.7
			c-0.1,0.8,0.1,1.8,0.8,2l1.4,0.5L262.9,332.2z"/>
	</g>
	<g>
		<path class="st4" d="M398.4,260.7c-0.4,0-0.8,0-1.1-0.1c-2.1-0.3-3.8-1.4-4.8-3.1l-0.7-1.2l2.4-1.5l0.7,1.2
			c0.6,0.9,1.6,1.5,2.8,1.7c1.2,0.2,2.4-0.1,3.2-0.8l1.1-0.9l1.9,2.1l-1.1,0.9C401.6,260.1,400,260.7,398.4,260.7z"/>
	</g>
	<g>
		<path class="st4" d="M350.4,366.5c0-1.5,1.2-2.7,2.7-2.7s2.7,1.2,2.7,2.7c0,1.5-1.2,2.7-2.7,2.7S350.4,367.9,350.4,366.5z"/>
	</g>
	<g>
		<circle class="st4" cx="312.3" cy="280.3" r="2.7"/>
	</g>
	<g>
		<path class="st4" d="M201.4,378.5c0-1.1,0.9-2.1,2.1-2.1c1.1,0,2.1,0.9,2.1,2.1c0,1.1-0.9,2.1-2.1,2.1
			C202.3,380.5,201.4,379.6,201.4,378.5z"/>
	</g>
	<g>
		<path class="st4" d="M152.4,260.4c0-1.3,1-2.3,2.3-2.3c1.3,0,2.3,1,2.3,2.3c0,1.3-1,2.3-2.3,2.3
			C153.4,262.7,152.4,261.7,152.4,260.4z"/>
	</g>
	<g>
		<path class="st4" d="M197.9,296.8c0-2.3,1.9-4.1,4.1-4.1c2.3,0,4.1,1.9,4.1,4.1c0,2.3-1.9,4.1-4.1,4.1
			C199.8,301,197.9,299.1,197.9,296.8z"/>
	</g>
	<g>
		<path class="st4" d="M19,408.1c0-2.3,1.9-4.1,4.1-4.1c2.3,0,4.1,1.9,4.1,4.1c0,2.3-1.9,4.1-4.1,4.1C20.8,412.3,19,410.4,19,408.1z
			"/>
	</g>
	<g>
		<path class="st4" d="M70.8,355.5c0-1.2,1-2.2,2.2-2.2c1.2,0,2.2,1,2.2,2.2c0,1.2-1,2.2-2.2,2.2C71.8,357.7,70.8,356.7,70.8,355.5z
			"/>
	</g>
	<g>
		<polygon class="st4" points="235.3,352.6 234.2,350.7 232.1,350.2 233.6,348.6 233.3,346.5 235.3,347.4 237.3,346.5 237,348.6 
			238.5,350.2 236.4,350.7 		"/>
	</g>
	<g>
		<path class="st4" d="M102.6,301.1c-0.5-0.4-5.3-0.7-5.3-0.7l4.5-8.3L102.6,301.1z"/>
	</g>
	<g>
		<path class="st4" d="M291.5,222.7l-1.4-0.1c-2.3-0.2-3.7-2.4-3.8-4.5c-0.1-1.4,0.3-2.6,0.6-3.9c0.1-0.3,0.2-0.6,0.2-0.9
			c0.4-1.5,0.3-2.5-0.1-3.2l-0.7-1.2l2.4-1.5l0.7,1.2c0.8,1.4,1,3.1,0.4,5.4c-0.1,0.3-0.2,0.6-0.3,1c-0.3,1-0.6,2-0.5,2.9
			c0.1,0.8,0.6,1.7,1.2,1.8l1.4,0.1L291.5,222.7z"/>
	</g>
	<g>
		<circle class="st4" cx="339" cy="171.2" r="2.7"/>
	</g>
	<g>
		<path class="st4" d="M179.1,151.4c0-1.3,1-2.3,2.3-2.3c1.3,0,2.3,1,2.3,2.3s-1,2.3-2.3,2.3C180.1,153.7,179.1,152.7,179.1,151.4z"
			/>
	</g>
	<g>
		<path class="st4" d="M224.6,187.8c0-2.3,1.9-4.1,4.1-4.1c2.3,0,4.1,1.9,4.1,4.1c0,2.3-1.9,4.1-4.1,4.1
			C226.5,191.9,224.6,190.1,224.6,187.8z"/>
	</g>
	<g>
		<path class="st4" d="M97.5,246.4c0-1.2,1-2.2,2.2-2.2c1.2,0,2.2,1,2.2,2.2s-1,2.2-2.2,2.2C98.5,248.6,97.5,247.7,97.5,246.4z"/>
	</g>
	<g>
		<path class="st4" d="M255.6,418.8c0-1.2,1-2.2,2.2-2.2c1.2,0,2.2,1,2.2,2.2c0,1.2-1,2.2-2.2,2.2C256.6,421,255.6,420,255.6,418.8z
			"/>
	</g>
	<g>
		<circle class="st1" cx="88.3" cy="201.6" r="2.9"/>
	</g>
	<g>
		<path class="st5" d="M46.5,70.1L43.8,69l0.5-1.3c0.6-1.6-0.1-3.6-1.6-4.4l-1.3-0.7l1.3-2.5l1.3,0.7c2.8,1.5,4.1,5,3,8L46.5,70.1z"
			/>
	</g>
	<g>
		<path class="st5" d="M119.7,76.9C119.7,76.9,119.7,76.9,119.7,76.9c-0.8,0-1.5-0.4-2-1c-0.6-0.9-0.7-1.9-0.7-2.6
			c0-0.4,0-1-0.2-1.3c0,0,0,0-0.1,0l-0.6,0.8l-1.8-1.4l0.7-0.9c0.4-0.5,1-0.8,1.6-0.8c0,0,0,0,0,0c0.8,0,1.5,0.4,2,1
			c0.7,0.9,0.7,1.9,0.7,2.6c0,0.5,0,1,0.2,1.3c0,0,0,0,0.1,0l0.6-0.8l1.8,1.4l-0.7,0.9C121,76.7,120.4,76.9,119.7,76.9z"/>
	</g>
	<g>
		<path class="st5" d="M136,4l-2.1-0.9l0.5-1c0.7-1.6,0-3.6-1.4-4.5l-1-0.6l1.2-2l1,0.6c2.4,1.5,3.5,4.8,2.4,7.4L136,4z"/>
	</g>
	<g>
		<path class="st5" d="M238.1,5c-0.2,0-0.4,0-0.6-0.1l-1.1-0.3l0.7-2.2l1,0.3c0.1,0,0.1-0.1,0.1-0.2c0.1-0.3-0.1-0.9-0.2-1.3
			L237.9,1c-0.2-0.6-0.5-1.3-0.5-2.1c0-2.1,1.8-3.6,2.8-4.4l0.9-0.7l1.4,1.8l-0.9,0.7c-1,0.8-2,1.7-1.9,2.6c0,0.4,0.2,0.8,0.4,1.3
			l0.1,0.3c0.3,0.7,0.6,1.7,0.3,2.7c-0.2,0.7-0.7,1.3-1.3,1.6C238.8,4.9,238.4,5,238.1,5z"/>
	</g>
	<g>
		<path class="st5" d="M218.7,95.4l-0.9-0.7c-1-0.7-1.6-1.8-1.8-3.1c-0.2-1.3,0.2-2.5,0.9-3.4l0.7-0.9l1.8,1.4l-0.7,0.9
			c-0.4,0.4-0.5,1-0.4,1.7c0.1,0.6,0.4,1.2,0.9,1.5l0.9,0.7L218.7,95.4z"/>
	</g>
	<g>
		<path class="st5" d="M176.2,119.2l-0.5-1c-0.3-0.7-1.1-1.2-2.6-1.6l-0.5-0.1c-1.2-0.3-2.6-0.7-3.7-1.8l-0.8-0.8l1.6-1.6l0.8,0.8
			c0.7,0.6,1.7,0.9,2.7,1.2l0.5,0.2c0.8,0.2,3.1,0.9,4,2.9l0.5,1L176.2,119.2z"/>
	</g>
	<g>
		<path class="st5" d="M272.5,128.7C272.5,128.7,272.5,128.7,272.5,128.7l-1.2,0l0-2.3l1.1,0c0,0,0,0,0,0c0.5,0,1-0.3,1.3-0.8
			c0.3-0.5,0.4-1.1,0.3-1.5l-0.4-1.1l2.1-0.8l0.4,1.1c0.4,1.2,0.2,2.5-0.6,3.6C274.9,128.1,273.7,128.7,272.5,128.7z"/>
	</g>
	<g>
		<path class="st5" d="M342.2,16.7l-0.8-0.9c-1.1-1.3-0.7-3.1,0.4-4.1c0.9-0.9,2.1-1.2,3.2-1.4l0.4-0.1c0.7-0.1,1.4-0.2,2-0.5l1-0.6
			l1.1,2l-1,0.6c-0.9,0.5-1.9,0.7-2.7,0.8l-0.4,0.1c-0.7,0.1-1.5,0.3-2,0.8c-0.3,0.3-0.4,0.8-0.2,1l0.8,0.9L342.2,16.7z"/>
	</g>
	<g>
		<path class="st5" d="M389,11.9c-0.2,0-0.3,0-0.5,0l-1.1-0.1l0.3-2.3l1.1,0.1c0.9,0.1,1.8-0.6,2.3-1.4c0.6-1,0.9-2.3,1.1-3.5
			l0.2-1.1l2.2,0.4l-0.2,1.1c-0.2,1.4-0.5,3-1.4,4.3C392.1,11,390.5,11.9,389,11.9z"/>
	</g>
	<g>
		<circle class="st5" cx="255.2" cy="45.8" r="1.9"/>
	</g>
	<g>
		<path class="st5" d="M338.2,57.7c0,1.6-1.3,2.9-2.9,2.9c-1.6,0-2.9-1.3-2.9-2.9c0-1.6,1.3-2.9,2.9-2.9
			C336.9,54.8,338.2,56.1,338.2,57.7z"/>
	</g>
	<g>
		<polygon class="st5" points="413.4,132.7 414.6,135 417.2,135.5 415.4,137.4 415.7,139.9 413.4,138.8 411.1,139.9 411.4,137.4 
			409.6,135.5 412.2,135 		"/>
	</g>
	<g>
		<polygon class="st5" points="244.8,77.9 246.3,80.5 249.1,81 247.1,83.2 247.5,86 244.8,84.8 242.2,86 242.6,83.2 240.6,81 
			243.4,80.5 		"/>
	</g>
	<g>
		<polygon class="st5" points="30.7,119.6 32.3,122.5 35.5,123.1 33.2,125.5 33.7,128.8 30.7,127.4 27.7,128.8 28.1,125.5 
			25.8,123.1 29.1,122.5 		"/>
	</g>
	<g>
		<polygon class="st5" points="405.1,17.8 402.9,25 417.2,24.1 		"/>
	</g>
	<g>
		<path class="st5" d="M294.3,67.3c0.5,0.4,5.3,0.7,5.3,0.7l-4.5,8.3L294.3,67.3z"/>
	</g>
	<g>
		<polygon class="st5" points="43.7,338.9 35.9,344 35.3,337.3 		"/>
	</g>
	<g>
		<path class="st5" d="M19,263.1l-1-2.7l1.3-0.5c1.8-0.7,3.2-2.4,3.6-4.3l0.3-1.4l2.8,0.6l-0.3,1.4c-0.6,2.9-2.6,5.3-5.3,6.4
			L19,263.1z"/>
	</g>
	<g>
		<path class="st5" d="M8.5,338.1c-0.7,0-1.4-0.1-2-0.3l-1.4-0.5l0.9-2.7l1.4,0.5c1.4,0.5,3.2,0,4.1-1.2l0.9-1.1l2.2,1.8l-0.9,1.1
			C12.4,337.2,10.5,338.1,8.5,338.1z"/>
	</g>
	<g>
		<path class="st5" d="M233,290.9l-1.3-0.6c-1.9-1-2.3-3.4-1.7-5.3c0.2-0.6,0.5-1.2,0.7-1.7c0.3-0.7,0.6-1.3,0.7-1.9
			c0.2-1.4-0.8-3-2.2-3.5l-1.4-0.4l0.8-2.7l1.4,0.4c2.8,0.8,4.7,3.8,4.2,6.7c-0.2,1-0.6,1.8-0.9,2.6c-0.2,0.5-0.4,0.9-0.6,1.4
			c-0.3,0.8-0.1,1.7,0.3,1.9l1.3,0.6L233,290.9z"/>
	</g>
	<g>
		<path class="st5" d="M335.8,264.8l-0.4-2.8l1.4-0.2c0.1,0,0.3,0,0.5-0.3c0.3-0.5,0.4-1.3,0.2-1.9c-0.2-0.7-0.6-1.4-1-2.1
			c-0.4-0.7-0.8-1.5-1.2-2.4c-0.5-1.4-0.4-3,0.2-4.2c0.5-0.9,1.2-1.6,2.2-1.9l1.4-0.4l0.8,2.7l-1.4,0.4c-0.1,0-0.3,0.1-0.5,0.4
			c-0.3,0.5-0.3,1.4-0.1,2c0.2,0.6,0.6,1.2,0.9,1.9c0.5,0.8,1,1.7,1.3,2.7c0.4,1.4,0.2,3.1-0.5,4.2c-0.6,0.9-1.4,1.5-2.4,1.6
			L335.8,264.8z"/>
	</g>
	<g>
		<path class="st5" d="M388.8,301.4l-2.7-1l0.5-1.3c0.2-0.7,0.1-1.5-0.4-2c-0.5-0.5-1.3-0.8-2-0.6l-1.4,0.4l-0.7-2.8l1.4-0.4
			c1.7-0.4,3.6,0.1,4.8,1.4c1.2,1.3,1.6,3.2,1,4.9L388.8,301.4z"/>
	</g>
	<g>
		<path class="st5" d="M398.6,225.1l-1.4-0.2c-3.6-0.4-7-2.7-8.7-6l-0.7-1.3l2.5-1.3l0.7,1.3c1.3,2.4,3.8,4.2,6.6,4.5l1.4,0.2
			L398.6,225.1z"/>
	</g>
	<g>
		<path class="st5" d="M342.1,349.9c-0.4,0-0.8-0.1-1.3-0.3c-1.3-0.5-2.4-1.8-2.6-3.2c-0.2-1.1-0.1-2.2,0-3.1
			c0.1-0.6,0.1-1.2,0.1-1.8c0-0.6-0.3-1.3-0.7-1.6c-0.2-0.2-0.3-0.2-0.4-0.1l-1.4,0.2l-0.5-2.8l1.4-0.2c0.9-0.2,1.9,0.1,2.6,0.7
			c1,0.8,1.7,2.2,1.8,3.7c0,0.8,0,1.5-0.1,2.2c-0.1,0.8-0.2,1.6,0,2.3c0.1,0.5,0.5,1,0.9,1.2c0.2,0.1,0.2,0,0.3,0l1.2-0.8l1.6,2.4
			l-1.2,0.8C343.3,349.7,342.7,349.9,342.1,349.9z"/>
	</g>
	<g>
		<path class="st5" d="M385.6,357.3l-0.5-2.8l1.4-0.2c0,0,0.2,0,0.3-0.3c0.2-0.4,0.2-1.1,0-1.6c-0.3-0.7-0.9-1.4-1.5-2
			c-0.4-0.4-0.8-0.9-1.2-1.4c-1.2-1.7-1.8-4.3-0.3-6.1l0.9-1.1l2.1,1.9l-1,1.1c-0.5,0.5-0.1,1.7,0.5,2.5c0.3,0.4,0.6,0.8,1,1.2
			c0.7,0.8,1.5,1.7,2,2.8c0.5,1.3,0.5,2.9-0.2,4c-0.5,0.9-1.3,1.6-2.3,1.7L385.6,357.3z"/>
	</g>
	<g>
		<path class="st5" d="M90.6,373.8c-0.8,0-1.6-0.3-2.1-0.8l-1-1l2-2.1l1,1c0,0,0.1,0.1,0.4,0c0.5-0.1,1-0.7,1.2-1.2
			c0.2-0.8,0.1-1.8,0-2.8c-0.1-0.6-0.2-1.3-0.2-2c0-2.5,1.4-5.2,4-5.3l1.4-0.1l0.2,2.8l-1.4,0.1c-0.7,0-1.3,1.3-1.3,2.4
			c0,0.5,0.1,1.1,0.1,1.7c0.1,1.2,0.3,2.5-0.1,3.9c-0.4,1.5-1.7,2.8-3.2,3.2C91.3,373.7,91,373.8,90.6,373.8z"/>
	</g>
	<g>
		<circle class="st5" cx="278.7" cy="347" r="2.4"/>
	</g>
	<g>
		<path class="st5" d="M94.7,273.6c0-2.1,1.7-3.8,3.8-3.8c2.1,0,3.8,1.7,3.8,3.8s-1.7,3.8-3.8,3.8C96.4,277.4,94.7,275.7,94.7,273.6
			z"/>
	</g>
	<g>
		<path class="st5" d="M168.8,408.1c0-2.1,1.7-3.8,3.8-3.8s3.8,1.7,3.8,3.8s-1.7,3.8-3.8,3.8S168.8,410.2,168.8,408.1z"/>
	</g>
	<g>
		<path class="st5" d="M410.1,363.4c0-2.1,1.7-3.8,3.8-3.8c2.1,0,3.8,1.7,3.8,3.8c0,2.1-1.7,3.8-3.8,3.8
			C411.8,367.2,410.1,365.5,410.1,363.4z"/>
	</g>
	<g>
		<polygon class="st5" points="170.6,342.2 169.4,340 167,339.5 168.7,337.7 168.4,335.2 170.6,336.3 172.9,335.2 172.6,337.7 
			174.3,339.5 171.8,340 		"/>
	</g>
	<g>
		<polygon class="st5" points="134.1,377 133.2,375.2 131.2,374.9 132.6,373.4 132.3,371.4 134.1,372.3 135.9,371.4 135.7,373.4 
			137,374.9 135.1,375.2 		"/>
	</g>
	<g>
		<polygon class="st5" points="342.8,285.8 338.3,289.9 335.1,282 		"/>
	</g>
	<g>
		<polygon class="st5" points="68.1,225.7 66.9,235 61.4,231 		"/>
	</g>
	<g>
		<path class="st5" d="M45.7,154l-1-2.7l1.3-0.5c1.8-0.7,3.2-2.4,3.6-4.3l0.3-1.4l2.8,0.6l-0.3,1.4c-0.6,2.9-2.6,5.3-5.3,6.4
			L45.7,154z"/>
	</g>
	<g>
		<path class="st5" d="M259.7,181.8l-1.3-0.6c-1.9-1-2.3-3.4-1.7-5.3c0.2-0.6,0.5-1.2,0.7-1.7c0.3-0.7,0.6-1.3,0.7-1.9
			c0.2-1.4-0.8-3-2.2-3.5l-1.4-0.4l0.8-2.7l1.4,0.4c2.8,0.8,4.7,3.8,4.2,6.7c-0.2,1-0.6,1.8-0.9,2.6c-0.2,0.5-0.4,0.9-0.6,1.4
			c-0.3,0.8-0.1,1.7,0.3,1.9l1.3,0.6L259.7,181.8z"/>
	</g>
	<g>
		<circle class="st5" cx="305.4" cy="237.9" r="2.4"/>
	</g>
	<g>
		<path class="st5" d="M121.4,164.5c0-2.1,1.7-3.8,3.8-3.8s3.8,1.7,3.8,3.8s-1.7,3.8-3.8,3.8S121.4,166.6,121.4,164.5z"/>
	</g>
	<g>
		<polygon class="st1" points="293.6,165.3 291.2,163 287.9,163.4 289.4,160.4 288,157.4 291.3,157.9 293.7,155.6 294.3,158.9 
			297.2,160.5 294.3,162.1 		"/>
	</g>
	<g>
		<polygon class="st5" points="197.3,233.1 196.1,230.9 193.7,230.5 195.4,228.6 195.1,226.2 197.3,227.2 199.6,226.2 199.3,228.6 
			201,230.5 198.5,230.9 		"/>
	</g>
	<g>
		<polygon class="st1" points="178.8,181.4 177.3,178.9 174.5,178.3 176.5,176.2 176.1,173.3 178.8,174.5 181.4,173.3 181,176.2 
			183,178.3 180.2,178.9 		"/>
	</g>
	<g>
		<path class="st6" d="M361.9,87.5H360v-1.9c0-0.6-0.5-1.1-1.1-1.1c-0.6,0-1.1,0.5-1.1,1.1v1.9h-1.9c-0.6,0-1.1,0.5-1.1,1.1
			s0.5,1.1,1.1,1.1h1.9v1.9c0,0.6,0.5,1.1,1.1,1.1c0.6,0,1.1-0.5,1.1-1.1v-1.9h1.9c0.6,0,1.1-0.5,1.1-1.1S362.5,87.5,361.9,87.5z"/>
	</g>
	<g>
		<path class="st6" d="M384.6,35.7l-2.2-1.8l0.9-1.1c1.7-2.1,4.7-3,7.2-2.1l1.4,0.5l-0.9,2.7l-1.4-0.5c-1.4-0.5-3.2,0-4.1,1.2
			L384.6,35.7z"/>
	</g>
	<g>
		<path class="st6" d="M370.2,168.4l-0.2-1.4c-0.2-0.8-2.4-2.9-3.2-3.1l-1.3,0.1l-0.3-2.8l1.4-0.2c2.2-0.3,6,3.8,6.2,5.6l0.2,1.4
			L370.2,168.4z M366.8,163.8L366.8,163.8L366.8,163.8z"/>
	</g>
	<g>
		<path class="st6" d="M333.7,412.9l-1.4,0.1c-0.8,0.2-3,2.2-3.3,3l0.1,1.3l-2.8,0.2l-0.1-1.4c-0.2-2.2,4-5.8,5.9-6l1.4-0.1
			L333.7,412.9z M329,416.1L329,416.1L329,416.1z"/>
	</g>
	<g>
		<path class="st6" d="M94.9,12.8l-2.1-1.9l0.9-1.1c0.7-0.8,1.1-2.1,1-3.3c-0.1-1.3-0.7-2.4-1.6-3.1L92,2.5l1.8-2.2l1.1,0.9
			c1.5,1.2,2.4,3,2.6,5.1c0.2,2-0.4,4-1.7,5.5L94.9,12.8z"/>
	</g>
	<g>
		<polygon class="st1" points="362.1,426.1 363.4,428.4 366,428.9 364.2,430.8 364.6,433.5 362.1,432.4 359.7,433.5 360,430.8 
			358.2,428.9 360.8,428.4 		"/>
	</g>
	<g>
		<circle class="st3" cx="43.8" cy="433.9" r="2.7"/>
	</g>
	<g>
		<path class="st4" d="M299.7,440.8l-0.2-2.8l1.4-0.1c0.7,0,1.3-1.3,1.3-2.4c0-0.5-0.1-1.1-0.1-1.7c-0.1-1.2-0.3-2.5,0.1-3.9
			c0.4-1.5,1.7-2.8,3.2-3.2c1.2-0.3,2.3-0.1,3.1,0.7l1,1l-2,2.1l-1-1c0,0-0.1-0.1-0.4,0c-0.5,0.1-1,0.7-1.2,1.2
			c-0.2,0.8-0.1,1.8,0,2.8c0.1,0.6,0.2,1.3,0.2,2c0,2.5-1.4,5.2-4,5.3L299.7,440.8z"/>
	</g>
	<g>
		<g>
			<path class="st5" d="M136,436l-2.1-0.9l0.5-1c0.7-1.6,0-3.6-1.4-4.5l-1-0.6l1.2-2l1,0.6c2.4,1.5,3.5,4.8,2.4,7.4L136,436z"/>
		</g>
		<g>
			<path class="st5" d="M238.1,437c-0.2,0-0.4,0-0.6-0.1l-1.1-0.3l0.7-2.2l1,0.3c0.1,0,0.1-0.1,0.1-0.2c0.1-0.3-0.1-0.9-0.2-1.3
				l-0.1-0.3c-0.2-0.6-0.5-1.3-0.5-2.1c0-2.1,1.8-3.6,2.8-4.4l0.9-0.7l1.4,1.8l-0.9,0.7c-1,0.8-2,1.7-1.9,2.6c0,0.4,0.2,0.8,0.4,1.3
				l0.1,0.3c0.3,0.7,0.6,1.7,0.3,2.7c-0.2,0.7-0.7,1.3-1.3,1.6C238.8,436.9,238.4,437,238.1,437z"/>
		</g>
	</g>
	<g>
		<path class="st6" d="M2.8,113.6l-0.7-1.2c-0.6-0.9-1.6-1.5-2.8-1.7c-1.2-0.2-2.4,0.1-3.2,0.8l-1.1,0.9l-1.9-2.1l1.1-0.9
			c1.4-1.3,3.4-1.8,5.5-1.5c2.1,0.3,3.8,1.4,4.8,3.1l0.7,1.2L2.8,113.6z"/>
	</g>
	<g>
		<path class="st1" d="M436.5,40.3c-3.1,0-6.2-2.2-7-5.3l-0.4-1.4l2.8-0.7l0.4,1.4c0.6,2.1,3.1,3.6,5.2,3.1l1.4-0.3l0.7,2.8
			l-1.4,0.3C437.6,40.2,437,40.3,436.5,40.3z"/>
	</g>
	<g>
		<path class="st3" d="M439.8,279.7l-2.9-0.1l0.1-1.4c-0.1-1.2-4.1-5-6.1-6.1l-1.3-0.7l1.4-2.5l1.3,0.7c1.2,0.6,7.7,5.5,7.6,8.7
			L439.8,279.7z"/>
	</g>
	<g>
		<polygon class="st3" points="431.3,192.9 430.2,190.9 427.9,190.4 429.5,188.7 429.2,186.4 431.3,187.4 433.4,186.4 433.1,188.7 
			434.7,190.4 432.4,190.9 		"/>
	</g>
	<g>
		<polygon class="st3" points="275.5,414.9 277.8,414.2 278.7,412 280,413.9 282.4,414.1 281,416 281.5,418.3 279.3,417.5 
			277.3,418.8 277.3,416.4 		"/>
	</g>
	<g>
		<path class="st4" d="M432.5,151.1l-0.7-1.3c-1.3-2.4-3.8-4.2-6.6-4.5l-1.4-0.2l0.3-2.8l1.4,0.2c3.6,0.4,7,2.7,8.7,6l0.7,1.3
			L432.5,151.1z"/>
	</g>
	<g>
		<path class="st4" d="M433.3,252.1l-2.7-0.9l0.4-1.4c0.4-1.4-0.1-3-1.3-3.8l-1.2-0.8l1.7-2.3l1.2,0.8c2.2,1.5,3.1,4.5,2.4,7
			L433.3,252.1z"/>
	</g>
	<g>
		<path class="st6" d="M434.8,113.6l-0.7-1.2c-0.6-0.9-1.6-1.5-2.8-1.7c-1.2-0.2-2.4,0.1-3.2,0.8l-1.1,0.9l-1.9-2.1l1.1-0.9
			c1.4-1.3,3.4-1.8,5.5-1.5c2.1,0.3,3.8,1.4,4.8,3.1l0.7,1.2L434.8,113.6z"/>
	</g>
	<g>
		<polygon class="st6" points="130,94 132.4,96.3 135.7,96 134.2,98.9 135.6,101.9 132.3,101.5 129.9,103.7 129.3,100.5 126.4,98.8 
			129.3,97.3 		"/>
	</g>
	<g>
		<circle class="st6" cx="411.9" cy="302.9" r="1.9"/>
	</g>
	<g>
		<circle class="st6" cx="123" cy="412.4" r="1.9"/>
	</g>
	<g>
		<circle class="st6" cx="218" cy="6.5" r="1.9"/>
	</g>
	<g>
		
			<rect x="228.8" y="371.9" transform="matrix(-1 -1.224647e-16 1.224647e-16 -1 462.3626 748.2136)" class="st6" width="4.7" height="4.5"/>
	</g>
	<g>
		
			<rect x="303.2" y="325.3" transform="matrix(-1 -1.224647e-16 1.224647e-16 -1 612.3041 654.1447)" class="st6" width="5.9" height="3.5"/>
	</g>
	<g>
		
			<rect x="322.1" y="376.2" transform="matrix(-1 -1.224647e-16 1.224647e-16 -1 647.0538 754.5577)" class="st6" width="2.8" height="2.2"/>
	</g>
	<g>
		
			<rect x="358.3" y="323.3" transform="matrix(-1 -1.224647e-16 1.224647e-16 -1 718.3602 648.8622)" class="st6" width="1.8" height="2.2"/>
	</g>
	<g>
		
			<rect x="359.9" y="273.9" transform="matrix(-1 -1.224647e-16 1.224647e-16 -1 726.0808 552.3552)" class="st6" width="6.3" height="4.5"/>
	</g>
	<g>
		
			<rect x="156.6" y="45" transform="matrix(-1 -1.224647e-16 1.224647e-16 -1 319.4609 94.5637)" class="st6" width="6.3" height="4.5"/>
	</g>
	<g>
		
			<rect x="241.6" y="303.8" transform="matrix(-1 -1.224647e-16 1.224647e-16 -1 486.7433 611.8848)" class="st6" width="3.5" height="4.3"/>
	</g>
	<g>
		
			<rect x="85.5" y="173.3" transform="matrix(-1 -1.224647e-16 1.224647e-16 -1 174.4812 350.9079)" class="st6" width="3.5" height="4.3"/>
	</g>
	<g>
		
			<rect x="209.7" y="52.4" transform="matrix(-1 -1.224647e-16 1.224647e-16 -1 422.8164 109.126)" class="st6" width="3.5" height="4.3"/>
	</g>
	<g>
		<polygon class="st6" points="258.5,239 265.5,241.2 265.5,243.8 258.5,241.6 		"/>
	</g>
	<g>
		<polygon class="st6" points="56.1,288.6 61.5,283.8 63.8,285.2 58.3,290 		"/>
	</g>
	<g>
		
			<rect x="146.5" y="348.8" transform="matrix(-1 -1.224647e-16 1.224647e-16 -1 295.5958 699.8057)" class="st6" width="2.6" height="2.2"/>
	</g>
	<g>
		
			<rect x="10.7" y="236.1" transform="matrix(-1 -1.224647e-16 1.224647e-16 -1 24.1086 474.5258)" class="st6" width="2.6" height="2.2"/>
	</g>
	<g>
		
			<rect x="71.5" y="375.3" transform="matrix(-1 -1.224647e-16 1.224647e-16 -1 147.3241 756.0182)" class="st6" width="4.3" height="5.5"/>
	</g>
	<g>
		
			<rect x="200" y="260.5" transform="matrix(-1 -1.224647e-16 1.224647e-16 -1 403.8918 526.0941)" class="st6" width="3.8" height="5.1"/>
	</g>
	<g>
		
			<rect x="38.2" y="34.1" transform="matrix(-1 -1.224647e-16 1.224647e-16 -1 80.1841 73.218)" class="st6" width="3.8" height="5.1"/>
	</g>
	<g>
		<path class="st6" d="M136,217.3l-0.6-1.3c-0.8-1.7-0.1-3.5,0.4-4.9c0.5-1.2,0.5-2,0.2-2.4l-0.8-1.2l2.3-1.6l0.8,1.2
			c1.3,1.8,0.4,4.2,0.1,5.1c-0.4,1-0.8,2-0.5,2.7l0.6,1.3L136,217.3z"/>
	</g>
	<g>
		<path class="st6" d="M185.6,102.7l1.1-0.9c1.5-1.2,3.4-0.9,4.8-0.8c1.3,0.2,2.1,0,2.4-0.3l0.9-1.1l2.1,1.9l-1,1.1
			c-1.5,1.7-4,1.4-4.9,1.3c-1-0.1-2.2-0.3-2.7,0.2l-1.1,0.9L185.6,102.7z"/>
	</g>
	<g>
		
			<rect x="329.9" y="216.3" transform="matrix(-1 -1.224647e-16 1.224647e-16 -1 665.7061 436.0342)" class="st6" width="5.9" height="3.5"/>
	</g>
	<g>
		
			<rect x="15" y="386.9" transform="matrix(-1 -1.224647e-16 1.224647e-16 -1 35.9305 777.2795)" class="st6" width="5.9" height="3.5"/>
	</g>
	<g>
		
			<rect x="99.3" y="341.7" transform="matrix(-1 -1.224647e-16 1.224647e-16 -1 204.4838 686.7668)" class="st6" width="5.9" height="3.5"/>
	</g>
	<g>
		
			<rect x="268.3" y="194.8" transform="matrix(-1 -1.224647e-16 1.224647e-16 -1 540.1453 393.7743)" class="st6" width="3.5" height="4.3"/>
	</g>
	<g>
		
			<rect x="21.7" y="318.4" transform="matrix(-1 -1.224647e-16 1.224647e-16 -1 46.7558 641.0103)" class="st6" width="3.5" height="4.3"/>
	</g>
	<g>
		<polygon class="st6" points="285.2,129.9 292.2,132.1 292.2,134.8 285.2,132.6 		"/>
	</g>
	<g>
		
			<rect x="226.7" y="151.5" transform="matrix(-1 -1.224647e-16 1.224647e-16 -1 457.2938 307.9836)" class="st6" width="3.8" height="5.1"/>
	</g>
	<g>
		
			<rect x="426" y="392.8" transform="matrix(-1 -1.224647e-16 1.224647e-16 -1 855.7127 790.7628)" class="st6" width="3.8" height="5.1"/>
	</g>
	<g>
		<path class="st6" d="M295.1,57.1l-0.8-1.2c-1.3-1.8-0.4-4.2-0.1-5.1c0.4-1,0.8-2,0.5-2.7l-0.6-1.3l2.6-1.2l0.6,1.3
			c0.8,1.7,0.1,3.5-0.4,4.9c-0.5,1.2-0.5,2-0.2,2.4l0.8,1.2L295.1,57.1z"/>
	</g>
	<g>
		<path class="st6" d="M21.5,191.1l-0.3-1.4c-0.6-2.3-0.2-4.7,1-6.7l0.8-1.2l2.4,1.5l-0.8,1.2c-0.8,1.3-1.1,3-0.7,4.5l0.3,1.4
			L21.5,191.1z"/>
	</g>
	<g>
		<path class="st1" d="M129.3,192.1c-0.5-0.4-5.3-0.7-5.3-0.7l4.5-8.3L129.3,192.1z"/>
	</g>
	<g>
		<path class="st1" d="M377.5,403.6c-0.7,0-4.9,2-4.9,2l-0.3-9.5L377.5,403.6z"/>
	</g>
</g>
</svg>
